<?xml version="1.0" standalone="no"?>
<!DOCTYPE svg PUBLIC "-//W3C//DTD SVG 20010904//EN"
 "http://www.w3.org/TR/2001/REC-SVG-20010904/DTD/svg10.dtd">
<svg version="1.0" xmlns="http://www.w3.org/2000/svg"
 width="512.000000pt" height="512.000000pt" viewBox="0 0 512.000000 512.000000"
 preserveAspectRatio="xMidYMid meet">

<g transform="translate(0.000000,512.000000) scale(0.100000,-0.100000)"
fill="#000000" stroke="none">
<path d="M2330 5110 c-494 -48 -950 -230 -1350 -538 -195 -150 -448 -432 -594
-662 -63 -99 -186 -351 -230 -471 -262 -714 -184 -1551 204 -2184 l40 -65
-195 -488 c-111 -274 -198 -507 -201 -532 -9 -81 54 -158 137 -167 39 -4 98
17 546 196 l503 201 65 -40 c633 -388 1470 -466 2184 -204 120 44 372 167 471
230 321 204 620 503 824 824 63 99 186 351 230 471 49 134 102 340 128 499 18
113 21 176 21 380 0 278 -15 409 -78 649 -48 180 -92 297 -180 476 -132 269
-269 460 -489 681 -221 220 -412 357 -681 489 -246 121 -474 193 -740 235
-147 23 -475 34 -615 20z m585 -339 c142 -24 338 -77 450 -121 674 -266 1180
-832 1359 -1520 57 -221 70 -327 70 -570 0 -243 -13 -349 -70 -570 -199 -764
-803 -1377 -1564 -1586 -623 -172 -1264 -74 -1814 275 -129 82 -106 86 -526
-83 -200 -80 -365 -144 -367 -143 -1 2 62 166 142 365 80 198 145 372 145 386
0 37 -16 72 -69 156 -341 534 -437 1183 -267 1800 185 674 690 1231 1348 1489
173 67 432 127 628 145 108 10 418 -4 535 -23z"/>
</g>
</svg>
